<?xml version="1.0" encoding="utf-8"?>
<!-- Parking Barrier icon by Arthur Shlain from Usefulicons.com -->
<svg xmlns="http://www.w3.org/2000/svg" xmlns:xlink="http://www.w3.org/1999/xlink" xml:space="preserve" version="1.1" x="0px" y="0px" viewBox="0 0 100 100" width="400px" height="400px"><path d="M80,10L25,46.667L25,45C25,42.239,22.761,40,20,40L15,40C12.239,40,10,42.239,10,45L10,90L25,90L25,68.333L90,25L80,10ZM83.066,23.613L75,28.991L75,19.343L78.613,16.934L83.066,23.613ZM70,22.676L70,32.324L65,35.657L65,26.009L70,22.676ZM50,45.657L45,48.99L45,39.342L50,36.009L50,45.657ZM40,42.676L40,52.324L35,55.657L35,46.009L40,42.676ZM15,45L20,45L20,50L15,50L15,45ZM25,62.324L25,52.676L30,49.343L30,58.991L25,62.324ZM55,42.324L55,32.676L60,29.343L60,38.991L55,42.324Z" stroke="none"></path></svg>